HIERARCHY
ROOT Hips
{
	OFFSET 0.000000 0.000000 0.000000 
	CHANNELS 6 Xposition Yposition Zposition Yrotation Zrotation Xrotation 
	JOINT Lumbar
	{
		OFFSET 0.000000 0.000000 0.000000 
		CHANNELS 3 Zrotation Xrotation Yrotation
		JOINT Neck
		{
			OFFSET 0.000000 0.445665 0.000000 
			CHANNELS 3 Zrotation Xrotation Yrotation
			End Site
			{
				OFFSET 0.000000 0.227535 0.000000 
			}
		}
		JOINT RightShoulder
		{
			OFFSET 0.019635 0.377685 0.194865 
			CHANNELS 3 Zrotation Xrotation Yrotation
			JOINT RightElbow
			{
				OFFSET 0.000000 -0.243375 0.000000 
				CHANNELS 2 Zrotation Yrotation
				JOINT RightWrist
				{
					OFFSET 0.000000 -0.264825 0.000000 
					CHANNELS 2 Zrotation Xrotation
					End Site
					{
						OFFSET 0.006600 -0.176220 0.000990 
					}
				}
			}
		}
		JOINT LeftShoulder
		{
			OFFSET 0.019635 0.377685 -0.194865 
			CHANNELS 3 Zrotation Xrotation Yrotation
			JOINT LeftElbow
			{
				OFFSET 0.000000 -0.243375 0.000000 
				CHANNELS 2 Zrotation Yrotation
				JOINT LeftWrist
				{
					OFFSET 0.000000 -0.264825 0.000000 
					CHANNELS 2 Zrotation Xrotation
					End Site
					{
						OFFSET 0.006600 -0.176220 -0.000990 
					}
				}
			}
		}
	}
	JOINT RightHip
	{
		OFFSET 0.052140 -0.069960 0.075570 
		CHANNELS 3 Zrotation Xrotation Yrotation
		JOINT RightKnee
		{
			OFFSET 0.000000 -0.402270 0.000000 
			CHANNELS 1 Zrotation
			JOINT RightAnkle
			{
				OFFSET 0.000000 -0.404085 0.000000 
				CHANNELS 3 Zrotation Xrotation Yrotation
				End Site
				{
					OFFSET 0.204105 -0.089430 0.008415 
				}
			}
		}
	}
	JOINT LeftHip
	{
		OFFSET 0.052140 -0.069960 -0.075570 
		CHANNELS 3 Zrotation Xrotation Yrotation
		JOINT LeftKnee
		{
			OFFSET 0.000000 -0.402270 0.000000 
			CHANNELS 1 Zrotation
			JOINT LeftAnkle
			{
				OFFSET 0.000000 -0.404085 0.000000 
				CHANNELS 3 Zrotation Xrotation Yrotation
				End Site
				{
					OFFSET 0.204105 -0.089430 -0.008415 
				}
			}
		}
	}
}
MOTION
Frames: 31
Frame Time: 0.02
-0.00018 -0.0011 0.00043 22.4108 -31.84847 -4.94237 47.15212 1.99757 -4.68397 3.3188 -4.0607 -0.92927 -34.08327 -11.40155 -14.36664 36.17853 86.75189 1.09428 1.5856 -39.04405 10.07627 7.07868 46.0415 -94.59446 6.00779 -2.43858 43.83679 -2.73142 -7.48717 -19.24303 -6.30793 -2.85858 -3.61448 50.01887 4.90031 0.35101 -24.88135 -6.4163 2.02055 3.23234
-0.00046 -0.00107 0.00042 22.402 -31.80629 -4.93893 47.18859 1.97298 -4.62536 3.94629 -4.03894 -0.93161 -30.89433 -12.02845 -12.92196 36.45718 86.95616 1.37724 1.56226 -34.82922 10.68142 5.90294 45.99512 -94.61415 6.12213 -2.38985 43.80335 -2.77993 -7.81096 -19.22781 -6.29779 -2.83789 -3.60264 49.98538 5.04467 1.03663 -24.87695 -6.42269 1.95552 3.19739
-0.00073 -0.00104 0.00041 22.39319 -31.76424 -4.93548 47.22503 1.94845 -4.56685 4.5725 -4.01723 -0.93394 -27.7122 -12.65356 -11.4799 36.73532 87.16015 1.65963 1.53894 -30.62345 11.28428 4.72977 45.94866 -94.63329 6.23589 -2.3412 43.77003 -2.82826 -8.13356 -19.2126 -6.28769 -2.81729 -3.59085 49.952 5.18859 1.72018 -24.87255 -6.42905 1.89068 3.16255
-0.00101 -0.00101 0.00039 22.38441 -31.72219 -4.93204 47.2614 1.92393 -4.5084 5.19817 -3.99554 -0.93627 -24.53254 -13.27856 -10.03935 37.01314 87.36387 1.94177 1.51566 -26.42089 11.88752 3.55745 45.90236 -94.65286 6.34985 -2.29261 43.7367 -2.87661 -8.45632 -19.19742 -6.27759 -2.79667 -3.57905 49.91861 5.3325 2.4037 -24.86817 -6.43543 1.82584 3.12772
-0.00128 -0.00098 0.00038 22.37564 -31.67999 -4.9286 47.29776 1.89937 -4.4499 5.82484 -3.97381 -0.93861 -21.34739 -13.90524 -8.59696 37.29142 87.56765 2.22433 1.49239 -22.21099 12.49314 2.38302 45.85631 -94.67314 6.46444 -2.24397 43.70324 -2.92516 -8.78035 -19.18223 -6.26744 -2.77594 -3.56719 49.88511 5.47685 3.08924 -24.86378 -6.44182 1.76082 3.09277
-0.00155 -0.00095 0.00036 22.36676 -31.63826 -4.92512 47.33438 1.87489 -4.39138 6.45003 -3.95215 -0.94094 -18.17191 -14.527 -7.15571 37.56926 87.77204 2.50631 1.46897 -18.0143 13.09013 1.2126 45.80906 -94.68986 6.57645 -2.19529 43.67022 -2.97301 -9.09994 -19.167 -6.25744 -2.75559 -3.55554 49.852 5.61985 3.76855 -24.85936 -6.44813 1.69637 3.05817
-0.00183 -0.00092 0.00035 22.35812 -31.59564 -4.92174 47.37043 1.85029 -4.33294 7.07757 -3.93038 -0.94328 -14.9801 -15.15807 -5.7136 37.84748 87.97515 2.78924 1.44587 -13.79518 13.70395 0.03527 45.76401 -94.71379 6.69357 -2.14675 43.63635 -3.02221 -9.42806 -19.15186 -6.24715 -2.73452 -3.54349 49.81812 5.76541 4.45966 -24.85502 -6.4546 1.63084 3.02292
-0.0021 -0.00089 0.00033 22.34926 -31.55385 -4.91827 47.40702 1.82579 -4.27446 7.70282 -3.90868 -0.94561 -11.80403 -15.78036 -4.27256 38.12571 88.17913 3.07115 1.42247 -9.59762 14.30206 -1.13543 45.71745 -94.73096 6.80589 -2.09807 43.60326 -3.07018 -9.74843 -19.13664 -6.23713 -2.7141 -3.5318 49.78496 5.90861 5.13989 -24.8506 -6.46093 1.5663 2.98826
-0.00237 -0.00086 0.00032 22.34013 -31.51302 -4.91464 47.44426 1.80144 -4.21576 8.32615 -3.8872 -0.94794 -8.64264 -16.39297 -2.8308 38.40271 88.38556 3.35254 1.39871 -5.42047 14.8819 -2.29972 45.66692 -94.74022 6.91273 -2.04925 43.57114 -3.11661 -10.05894 -19.12131 -6.22744 -2.69453 -3.52059 49.75264 6.04897 5.80712 -24.84608 -6.46706 1.50295 2.95431
-0.00267 -0.00084 0.00031 22.33252 -31.4665 -4.9118 47.47773 1.77628 -4.15783 8.96321 -3.86483 -0.95029 -5.38294 -17.06448 -1.38701 38.68307 88.58208 3.6391 1.37704 -1.10782 15.56966 -3.50605 45.63283 -94.79606 7.05225 -2.0013 43.53347 -3.17178 -10.42503 -19.10658 -6.21587 -2.67023 -3.50674 49.71539 6.20581 6.55008 -24.84214 -6.47428 1.43271 2.91627
-0.0029 -0.00079 0.00029 22.32172 -31.43208 -4.90737 47.51915 1.75281 -4.09858 9.56945 -3.8441 -0.95259 -2.34006 -17.60961 0.04823 38.95866 88.79677 3.91333 1.35097 2.90666 16.02793 -4.6202 45.5682 -94.75298 7.12209 -1.9515 43.50752 -3.2086 -10.67461 -19.09062 -6.20823 -2.6558 -3.49839 49.68861 6.32781 7.13257 -24.83698 -6.47921 1.37703 2.88687
-0.0029 -0.0007 0.00028 22.30174 -31.43022 -4.89795 47.58256 1.7342 -4.03301 10.1055 -3.82973 -0.95477 0.1791 -17.82242 1.4958 39.20196 89.08524 4.1655 1.31259 6.19559 15.86562 -5.5084 45.3848 -94.44157 7.00517 -1.89661 43.51381 -3.19375 -10.59526 -19.07092 -6.21173 -2.66971 -3.50573 49.69026 6.35398 7.27677 -24.82831 -6.47771 1.3614 2.88132
-0.00282 -0.00058 0.00026 22.27858 -31.44057 -4.88706 47.65387 1.71725 -3.96658 10.6077 -3.81656 -0.9569 2.46597 -17.90587 2.92814 39.44391 89.38797 4.40323 1.26987 9.16616 15.47157 -6.29924 45.17722 -94.03072 6.81777 -1.83991 43.53177 -3.16075 -10.40083 -19.05006 -6.21912 -2.69329 -3.51844 49.70242 6.34531 7.25984 -24.81844 -6.47396 1.36035 2.88441
-0.00277 -0.00047 0.00025 22.25719 -31.4458 -4.87723 47.72153 1.69935 -3.90233 11.11635 -3.80169 -0.95904 4.81448 -18.03879 4.34416 39.69914 89.66803 4.63975 1.2293 12.22428 15.17708 -7.11679 45.00355 -93.66277 6.65931 -1.78402 43.54439 -3.13688 -10.26481 -19.02995 -6.22452 -2.71167 -3.5283 49.71008 6.35262 7.31478 -24.80921 -6.47135 1.3526 2.88348
-0.00274 -0.00036 0.00023 22.23458 -31.44945 -4.86569 47.78971 1.68224 -3.83062 11.66372 -3.79201 -0.96123 7.35384 -18.20989 5.85845 39.90136 90.01467 4.90861 1.1879 15.53051 14.90476 -8.00745 44.73311 -93.30238 6.51246 -1.72803 43.55745 -3.10913 -10.10188 -19.00885 -6.23088 -2.73355 -3.53999 49.71692 6.35886 7.37347 -24.79957 -6.46823 1.34529 2.88302
-0.00266 -0.00025 0.00022 22.21358 -31.45903 -4.8574 47.85838 1.66395 -3.77412 12.12105 -3.77144 -0.96331 9.43326 -18.27196 7.16421 40.21307 90.22827 5.10725 1.14728 18.23501 14.5334 -8.72365 44.65846 -92.90508 6.32634 -1.67199 43.57207 -3.08528 -9.96884 -18.98962 -6.23612 -2.75031 -3.54906 49.72757 6.35957 7.38822 -24.79052 -6.46567 1.34038 2.88355
-0.0025 -0.00016 0.0002 22.19937 -31.48394 -4.85822 47.92886 1.64141 -3.76113 12.34962 -3.72337 -0.96506 10.36152 -18.05528 7.89916 40.83178 90.05135 5.11061 1.10936 19.43587 13.92884 -8.97399 45.12908 -92.41068 6.03568 -1.61482 43.59043 -3.0756 -9.9371 -18.97498 -6.23769 -2.75167 -3.55017 49.74942 6.34904 7.30285 -24.78308 -6.46473 1.33989 2.88532
-0.00231 -8e-05 0.00019 22.18661 -31.51397 -4.86239 47.99907 1.61774 -3.76329 12.48643 -3.66371 -0.96678 10.82264 -17.7353 8.42415 41.55914 89.74363 5.04472 1.07253 20.02618 13.236 -9.05331 45.7966 -91.88674 5.71069 -1.55799 43.6095 -3.07063 -9.94102 -18.96244 -6.23795 -2.74735 -3.54836 49.77411 6.33481 7.18156 -24.77633 -6.4645 1.34112 2.88769
-0.00213 1e-05 0.00018 22.17218 -31.54041 -4.86518 48.06794 1.59499 -3.75762 12.65785 -3.6075 -0.9685 11.45801 -17.46858 9.04491 42.23489 89.50878 5.01374 1.03548 20.8451 12.59409 -9.21659 46.37637 -91.38856 5.4099 -1.50182 43.62677 -3.0642 -9.93508 -18.94949 -6.23857 -2.74488 -3.54749 49.79538 6.32545 7.08959 -24.76944 -6.4643 1.34057 2.88931
-0.00196 0.0001 0.00017 22.16193 -31.57278 -4.86737 48.14352 1.57061 -3.75573 12.85865 -3.55916 -0.97005 12.24905 -17.17001 9.66521 42.92319 89.21806 4.96774 0.99692 21.86384 11.89738 -9.35147 46.95301 -90.83284 5.06937 -1.44181 43.6508 -3.05438 -9.89915 -18.93414 -6.24029 -2.74575 -3.54837 49.8261 6.30213 6.94002 -24.76175 -6.46263 1.34443 2.89309
-0.00175 0.00018 0.00016 22.14333 -31.59367 -4.87155 48.20464 1.54933 -3.7498 12.97611 -3.49149 -0.97221 12.60396 -16.91575 10.23485 43.60718 89.01207 4.93676 0.96209 22.3197 11.2982 -9.50448 47.57696 -90.39377 4.80562 -1.39033 43.6606 -3.05285 -9.93462 -18.92439 -6.23938 -2.73831 -3.54492 49.83754 6.30658 6.90036 -24.75597 -6.46408 1.33971 2.89257
-0.00142 0.00021 0.00018 22.10159 -31.58305 -4.88098 48.22845 1.53679 -3.72737 12.89242 -3.37475 -0.97371 11.90311 -16.80281 10.73198 44.28726 89.07506 4.96407 0.93491 21.41993 10.98013 -9.76357 48.33644 -90.26405 4.75249 -1.35869 43.63245 -3.07412 -10.16782 -18.92882 -6.23139 -2.7083 -3.52969 49.7961 6.39624 7.20552 -24.75473 -6.4751 1.30761 2.87848
-0.00104 0.00022 0.00022 22.05132 -31.56038 -4.89217 48.23724 1.52744 -3.70089 12.72674 -3.23876 -0.97621 10.77401 -16.73994 11.18196 44.95305 89.22707 5.00886 0.91188 19.96636 10.76651 -10.04426 49.12637 -90.25757 4.78029 -1.33636 43.58965 -3.10347 -10.4704 -18.93895 -6.22082 -2.67028 -3.51029 49.73493 6.51278 7.61763 -24.75551 -6.48903 1.26733 2.86028
-0.00068 0.00024 0.00024 22.00484 -31.54217 -4.9022 48.25116 1.51669 -3.67699 12.59472 -3.11054 -0.97986 9.82 -16.65878 11.6438 45.60244 89.33641 5.04592 0.88854 18.73662 10.51237 -10.30674 49.86842 -90.20756 4.77747 -1.3121 43.55246 -3.12852 -10.73584 -18.94697 -6.21152 -2.63657 -3.49313 49.68204 6.61212 7.95987 -24.75577 -6.50085 1.2329 2.84496
-0.00034 0.00027 0.00027 21.95897 -31.52835 -4.91395 48.27213 1.50566 -3.64945 12.47554 -2.98577 -0.97696 8.93299 -16.55464 12.14084 46.35131 89.45101 5.0801 0.85866 17.60617 10.22463 -10.60018 50.76345 -90.10145 4.74626 -1.27792 43.51956 -3.15638 -11.02654 -18.95305 -6.20173 -2.59982 -3.47442 49.63209 6.73212 8.38916 -24.75441 -6.51597 1.18965 2.82542
5e-05 0.00028 0.0003 21.90955 -31.50259 -4.92237 48.275 1.49603 -3.62964 12.31028 -2.84973 -0.98764 7.80962 -16.51218 12.5534 46.88937 89.57693 5.12478 0.84327 16.14135 10.03417 -10.83454 51.34151 -90.14481 4.79528 -1.26689 43.47441 -3.18025 -11.28012 -18.96448 -6.1924 -2.56758 -3.458 49.57137 6.81579 8.66471 -24.75686 -6.52497 1.16268 2.81361
0.00052 0.00023 0.00031 21.85421 -31.4457 -4.92218 48.23037 1.48889 -3.62115 12.04686 -2.68445 -1.03819 6.15049 -16.62438 12.76834 46.84008 89.71677 5.1989 0.8677 13.92551 10.07664 -10.91858 51.06321 -90.54543 5.03416 -1.31512 43.39762 -3.19112 -11.41863 -18.98941 -6.18478 -2.54957 -3.44882 49.48522 6.79022 8.47539 -24.76956 -6.51579 1.18378 2.82473
0.00103 0.00017 0.00032 21.79521 -31.37742 -4.91836 48.16838 1.48315 -3.62263 11.73828 -2.5091 -1.10195 4.268 -16.79853 12.89657 46.58175 89.86414 5.28209 0.90633 11.38815 10.21586 -10.94019 50.46022 -91.09676 5.35321 -1.38674 43.30929 -3.19768 -11.51632 -19.01949 -6.17776 -2.53643 -3.44213 49.38904 6.72761 8.13047 -24.78599 -6.50047 1.22132 2.84365
0.00152 0.00011 0.00033 21.73674 -31.31504 -4.91552 48.11497 1.47718 -3.62665 11.44543 -2.34023 -1.15784 2.48271 -16.94653 13.04958 46.4223 90.00654 5.35889 0.93801 8.97743 10.31774 -10.979 49.98602 -91.59632 5.64379 -1.44929 43.22714 -3.20622 -11.62972 -19.04717 -6.17056 -2.52118 -3.43439 49.29779 6.68349 7.8663 -24.80061 -6.48834 1.2506 2.85862
0.00202 6e-05 0.00033 21.68288 -31.24912 -4.91561 48.05765 1.46966 -3.60046 11.17152 -2.16253 -1.22131 0.70196 -17.08596 13.262 46.23967 90.16098 5.4474 0.97224 6.63066 10.39477 -11.06441 49.5871 -92.03106 5.90431 -1.50575 43.14046 -3.21501 -11.75786 -19.07539 -6.16283 -2.50518 -3.42615 49.20421 6.6333 7.56355 -24.81584 -6.47458 1.28295 2.87518
0.00251 0 0.00034 21.61853 -31.18809 -4.90866 48.00514 1.46556 -3.63988 10.84648 -2.00124 -1.27253 -1.13763 -17.25957 13.33143 46.06383 90.28787 5.51149 1.0041 4.07984 10.54579 -11.03918 48.9603 -92.63313 6.24448 -1.58012 43.06074 -3.22208 -11.84432 -19.10351 -6.15643 -2.49201 -3.4196 49.11344 6.58664 7.30273 -24.83058 -6.46279 1.3129 2.8903
